/vscmnt/brussel_pixiu_data/_data_brussel/112/vsc11236/PredSimResults/SUBJ06opt3D/expIG/worker_14.mot
version=1
nRows=10
nColumns=50
inDegrees=yes
endheader
                time	         pelvis_tilt	         pelvis_list	     pelvis_rotation	           pelvis_tx	           pelvis_ty	           pelvis_tz	       hip_flexion_r	     hip_adduction_r	      hip_rotation_r	        knee_angle_r	       ankle_angle_r	         mtp_angle_r	       hip_flexion_l	     hip_adduction_l	      hip_rotation_l	        knee_angle_l	       ankle_angle_l	         mtp_angle_l	    lumbar_extension	      lumbar_bending	     lumbar_rotation	 ercspn_r/activation	 intobl_r/activation	 extobl_r/activation	    abd_r/activation	    add_r/activation	hamstrings_r/activation	bifemsh_r/activation	glut_max_r/activation	iliopsoas_r/activation	rect_fem_r/activation	  vasti_r/activation	gastroc_r/activation	 soleus_r/activation	tib_ant_r/activation	 ercspn_l/activation	 intobl_l/activation	 extobl_l/activation	    abd_l/activation	    add_l/activation	hamstrings_l/activation	bifemsh_l/activation	glut_max_l/activation	iliopsoas_l/activation	rect_fem_l/activation	  vasti_l/activation	gastroc_l/activation	 soleus_l/activation	tib_ant_l/activation	
          0.00000000	         -9.93358138	         -1.87784800	          4.99439271	          0.00000000	          0.93942650	         -0.00143585	         36.17511641	          1.29953512	         -3.03556591	        -24.29088439	          5.07168747	          0.43259273	        -12.53019786	         -1.14976049	         -3.73061858	        -14.21787467	        -16.48990744	         44.41546893	         -6.65049694	          3.17718870	        -13.89415388	          0.27229620	          0.02902820	          0.00999999	          0.04413876	          0.29808043	          0.46643089	          0.40774757	          0.00999999	          0.21732419	          0.01171968	          0.00999999	          0.01130885	          0.01130885	          0.80600363	          0.20195903	          0.01339491	          0.00999999	          0.00999999	          0.34472234	          0.05595821	          0.22757142	          0.02675165	          0.92004674	          0.04149293	          0.01130885	          0.21026085	          0.11976784	          0.00999999	
          0.00785317	         -9.86212338	         -1.84482014	          4.86820322	          0.01702880	          0.93552319	         -0.00047177	         36.01111929	          1.65499345	         -2.69385928	        -25.25258939	          4.82890037	          0.43302944	        -12.28957344	         -1.30856783	         -4.09628846	        -16.58021456	        -16.93687699	         44.32460208	         -6.44020987	          3.23297737	        -14.03919055	          0.24078128	          0.02566854	          0.00999999	          0.03903024	          0.39694304	          0.41244728	          0.36055582	          0.06525796	          0.19217160	          0.01036327	          0.00999999	          0.00999999	          0.00999999	          0.83981861	          0.19956196	          0.01184461	          0.00999999	          0.00999999	          0.30482498	          0.04948174	          0.20123284	          0.02365547	          0.88483268	          0.03669064	          0.00999999	          0.18592575	          0.10590619	          0.00999999	
          0.01570633	         -9.78044108	         -1.83429056	          4.72364438	          0.03412786	          0.93132146	          0.00049023	         35.92981505	          1.99019064	         -2.30718107	        -27.08080494	          4.81735588	          0.39101479	        -11.82678965	         -1.51660591	         -4.47373726	        -19.36469659	        -17.37878742	         43.99097169	         -6.22125459	          3.31797496	        -14.11801067	          0.21291382	          0.02269773	          0.00999999	          0.09447741	          0.46750012	          0.36471160	          0.31882594	          0.05770516	          0.16993011	          0.00999999	          0.10591201	          0.00999999	          0.07996295	          0.74261997	          0.21975937	          0.01145754	          0.00999999	          0.00999999	          0.38558551	          0.04375484	          0.17794262	          0.02091764	          0.78242422	          0.03244415	          0.00999999	          0.16440714	          0.09364886	          0.00999999	
          0.02355950	         -9.69061743	         -1.85064468	          4.55762676	          0.05124273	          0.92697328	          0.00142116	         35.82007628	          2.27660008	         -2.03170836	        -29.21187949	          6.22018167	          0.74088193	        -11.15043978	         -1.77834532	         -4.86620714	        -22.50819591	        -17.92176403	         43.35181980	         -6.00124959	          3.43948526	        -14.12950593	          0.18827168	          0.02007075	          0.00999999	          0.24454199	          0.41339276	          0.32250073	          0.28192577	          0.16992837	          0.15026279	          0.00999999	          0.29369292	          0.01278902	          0.12267638	          0.65667088	          0.27338595	          0.01013147	          0.00999999	          0.00999999	          0.34095875	          0.03869075	          0.17109643	          0.01849669	          0.69186827	          0.02868914	          0.00999999	          0.14537905	          0.08281016	          0.00999999	
          0.03141267	         -9.59861698	         -1.90612178	          4.35992801	          0.06821596	          0.92279695	          0.00235573	         35.62891808	          2.57042076	         -1.90486182	        -31.33778585	          8.44693854	          1.54887581	        -10.24634516	         -2.11021616	         -5.28374487	        -25.95752120	        -18.64384244	         42.24866723	         -5.79738103	          3.60698831	        -14.06576702	          0.16648155	          0.01774780	          0.00999999	          0.34322171	          0.36554765	          0.28517525	          0.24929635	          0.21929940	          0.13287173	          0.00999999	          0.40931104	          0.01130885	          0.15781257	          0.58066933	          0.29823646	          0.00999999	          0.00999999	          0.00999999	          0.32279691	          0.03421278	          0.15129413	          0.01635592	          0.61179306	          0.02536873	          0.00999999	          0.12855322	          0.07322591	          0.04909172	
          0.03926583	         -9.50868977	         -1.99696012	          4.13685479	          0.08489892	          0.91905856	          0.00329644	         35.33235890	          2.90569499	         -1.78738682	        -33.22288015	         10.55244715	          2.59071593	         -9.11092315	         -2.51055847	         -5.70401064	        -29.66797750	        -19.48109682	         40.39646225	         -5.62718429	          3.81328721	        -13.93625583	          0.14721337	          0.01569372	          0.00999999	          0.40609014	          0.32324002	          0.25216974	          0.22044337	          0.20481502	          0.11749347	          0.00999999	          0.54006968	          0.00999999	          0.21886871	          0.51346403	          0.31823677	          0.03694142	          0.00999999	          0.00999999	          0.28543715	          0.03025307	          0.13378371	          0.01446293	          0.54098557	          0.02243261	          0.00999999	          0.11367477	          0.06475091	          0.13839799	
          0.04711900	         -9.42441310	         -2.10854700	          3.89066771	          0.10120852	          0.91590576	          0.00422814	         34.92050672	          3.26845317	         -1.66152308	        -34.80714963	         12.38533385	          3.75740348	         -7.77173127	         -2.95807636	         -6.09861040	        -33.55887189	        -20.32815995	         37.63692147	         -5.50048082	          4.03987687	        -13.74380825	          0.13607903	          0.01387736	          0.00999999	          0.44641230	          0.28582898	          0.22298420	          0.19492977	          0.18111021	          0.10389505	          0.00999999	          0.65115179	          0.00999999	          0.26944836	          0.45403691	          0.33819962	          0.08424262	          0.00999999	          0.00999999	          0.25240132	          0.02675165	          0.13835558	          0.01278902	          0.47837317	          0.01983631	          0.00999999	          0.10051832	          0.05725679	          0.25358726	
          0.05497216	         -9.34823009	         -2.23126861	          3.62320879	          0.11712462	          0.91341521	          0.00513026	         34.36803729	          3.64536745	         -1.52321789	        -36.04406958	         13.95873750	          4.98498488	         -6.28148022	         -3.42138149	         -6.43732774	        -37.49835210	        -20.97300153	         34.15846098	         -5.41905337	          4.27376461	        -13.48756906	          0.12201430	          0.01227123	          0.00999999	          0.46664688	          0.25274780	          0.19717654	          0.17236906	          0.16014894	          0.09187048	          0.00999999	          0.72591055	          0.00999999	          0.31753358	          0.40148774	          0.34815506	          0.11063007	          0.00999999	          0.00999999	          0.22318899	          0.02365548	          0.15442668	          0.01130885	          0.42300738	          0.01754050	          0.00999999	          0.08888456	          0.05063003	          0.23770596	
          0.06282533	         -9.28227949	         -2.35672845	          3.33508057	          0.13265671	          0.91163117	          0.00598347	         33.67069924	          4.02509849	         -1.36479408	        -36.92787426	         15.29016626	          6.22861035	         -4.69268845	         -3.86580380	         -6.71094734	        -41.36255938	        -20.86619763	         30.84538048	         -5.38093991	          4.50421950	        -13.16706233	          0.11146623	          0.01085098	          0.00999999	          0.46689140	          0.22349537	          0.17435579	          0.15241947	          0.14161368	          0.08123761	          0.00999999	          0.75023218	          0.00999999	          0.35978442	          0.35502049	          0.34508136	          0.11699202	          0.00999999	          0.00999999	          0.19735762	          0.02091765	          0.15166869	          0.00999999	          0.37404950	          0.01551041	          0.00999999	          0.07859727	          0.04477023	          0.26772891	
          0.07067850	         -9.22762652	         -2.47508940	          3.02760499	          0.14783355	          0.91058255	          0.00678337	         32.84607594	          4.39508555	         -1.17998822	        -37.49145666	         16.38052132	          7.45800563	         -3.03060315	         -4.27647887	         -6.92868085	        -45.06966691	        -20.16831380	         27.88222940	         -5.38303548	          4.71863666	        -12.78539897	          0.10769944	          0.00999999	          0.00999999	          0.45125076	          0.20341641	          0.15417626	          0.13477880	          0.12522364	          0.07183536	          0.00999999	          0.72521065	          0.00999999	          0.39659087	          0.31393125	          0.32932005	          0.12421754	          0.00999999	          0.00999999	          0.17451591	          0.01849669	          0.19496834	          0.00999999	          0.33075789	          0.01371527	          0.00999999	          0.06950061	          0.03958862	          0.28646185	
